<svg xmlns="http://www.w3.org/2000/svg" width="1360" height="900" fill="none" viewBox="0 0 1360 900"><rect width="1360" height="900" fill="#eef5e8"/><circle cx="1090" cy="96" r="330" fill="#cde6bd"/><circle cx="184" cy="774" r="290" fill="#dcefd3"/><rect width="350" height="628" x="210" y="92" fill="#161a14" rx="24"/><rect width="318" height="596" x="226" y="108" fill="#f8faf4" rx="18"/><rect width="270" height="46" x="250" y="132" fill="#e8f2df" rx="14"/><text x="274" y="162" fill="#52614a" font-family="Avenir Next, Arial, sans-serif" font-size="18" font-weight="600">Search clipboard history</text><circle cx="504" cy="155" r="8" fill="#5d8f1d"/><g font-family="Avenir Next, Arial, sans-serif"><rect width="270" height="64" x="250" y="204" fill="#fff" rx="14"/><text x="272" y="231" fill="#182114" font-size="16" font-weight="700">Release notes draft</text><text x="272" y="253" fill="#74806f" font-size="13">Copied 2 minutes ago</text><rect width="270" height="64" x="250" y="280" fill="#f0f7ea" rx="14"/><text x="272" y="307" fill="#182114" font-size="16" font-weight="700">Screenshot 2026-06-06</text><text x="272" y="329" fill="#74806f" font-size="13">PNG image, 284 KB</text><rect width="270" height="64" x="250" y="356" fill="#fff" rx="14"/><text x="272" y="383" fill="#182114" font-size="16" font-weight="700">qrcode96965c69...c7b18fbb.pdf</text><text x="272" y="405" fill="#74806f" font-size="13">File restored from Finder</text><rect width="270" height="64" x="250" y="432" fill="#fff" rx="14"/><text x="272" y="459" fill="#182114" font-size="16" font-weight="700">CommandOrControl+Shift+V</text><text x="272" y="481" fill="#74806f" font-size="13">Keyboard shortcut</text><rect width="270" height="42" x="250" y="528" fill="#e8f2df" rx="12"/><text x="272" y="554" fill="#426b12" font-size="14" font-weight="700">11-20 older items</text><rect width="270" height="42" x="250" y="580" fill="#f4f8f0" rx="12"/><text x="272" y="606" fill="#52614a" font-size="14" font-weight="700">21-30 older items</text></g><rect width="330" height="306" x="560" y="298" fill="#151a14" rx="24"/><rect width="298" height="274" x="576" y="314" fill="#f8faf4" rx="18"/><text x="602" y="354" fill="#182114" font-family="Avenir Next, Arial, sans-serif" font-size="20" font-weight="800">11-20 older items</text><g font-family="Avenir Next, Arial, sans-serif"><rect width="246" height="42" x="602" y="382" fill="#eef7e8" rx="12"/><text x="620" y="408" fill="#182114" font-size="14" font-weight="700">App launch checklist</text><rect width="246" height="42" x="602" y="432" fill="#fff" rx="12"/><text x="620" y="458" fill="#52614a" font-size="14" font-weight="700">GitHub release URL</text><rect width="246" height="42" x="602" y="482" fill="#fff" rx="12"/><text x="620" y="508" fill="#52614a" font-size="14" font-weight="700">Design notes</text><rect width="246" height="28" x="602" y="532" fill="#e6f0dd" rx="10"/></g><rect width="330" height="426" x="890" y="238" fill="#151a14" rx="24"/><rect width="298" height="394" x="906" y="254" fill="#fffdf8" rx="18"/><rect width="64" height="64" x="932" y="284" fill="#d9efc9" rx="16"/><path fill="#5d8f1d" d="M948 332 C954 295 979 285 990 292 C974 296 966 315 948 332Z"/><text x="932" y="382" fill="#182114" font-family="Avenir Next, Arial, sans-serif" font-size="22" font-weight="800">App launch checklist</text><text x="932" y="416" fill="#52614a" font-family="Avenir Next, Arial, sans-serif" font-size="15">1. Download release assets</text><text x="932" y="444" fill="#52614a" font-family="Avenir Next, Arial, sans-serif" font-size="15">2. Verify local history stays private</text><text x="932" y="472" fill="#52614a" font-family="Avenir Next, Arial, sans-serif" font-size="15">3. Open preview without stealing focus</text><rect width="198" height="42" x="932" y="526" fill="#2f5d08" rx="12"/><text x="958" y="552" fill="#fff" font-family="Avenir Next, Arial, sans-serif" font-size="15" font-weight="800">Copy to clipboard</text><path stroke="#87b85b" stroke-linecap="round" stroke-width="12" d="M210 752 C420 844 744 832 1014 742 C1120 707 1196 704 1250 728"/></svg>